<mxfile host="app.diagrams.net" modified="2023-06-29T07:56:40.549Z" agent="Mozilla/5.0 (Windows NT 10.0; Win64; x64) AppleWebKit/537.36 (KHTML, like Gecko) Chrome/114.0.0.0 Safari/537.36" version="21.5.2" etag="y0d05PBDo4pS14ceFLI7" type="github">
  <diagram name="第 1 页" id="q0-QAnB8lgWtzjWzKnwR">
    <mxGraphModel>
      <root>
        <mxCell id="0" />
        <mxCell id="1" parent="0" />
      </root>
    </mxGraphModel>
  </diagram>
</mxfile>
